<svg width="435" height="127" viewBox="0 0 435 127" fill="none" xmlns="http://www.w3.org/2000/svg">
<g opacity="0.05">
<path d="M46.8397 83.9722H35.2669C34.7731 83.9722 34.3411 83.8796 33.9708 83.6944C33.6622 83.4475 33.4153 83.0772 33.2301 82.5834L7.95514 7.03625C7.64653 6.11043 7.24534 5.4315 6.75157 4.99945C6.25779 4.50567 5.60972 4.19706 4.80734 4.07362L1.10405 3.24038C0.733716 3.17866 0.48683 3.08608 0.363387 2.96263C0.239944 2.83919 0.178223 2.68489 0.178223 2.49972C0.178223 2.25283 0.270805 2.09853 0.45597 2.03681C0.579413 1.91337 0.764577 1.85165 1.01146 1.85165H45.7287C45.9756 1.85165 46.1608 1.91337 46.2842 2.03681C46.4694 2.09853 46.562 2.28369 46.562 2.5923C46.562 2.71574 46.4694 2.83919 46.2842 2.96263C46.1608 3.08608 45.9139 3.20952 45.5436 3.33296L40.9144 4.07362C39.3097 4.38223 38.3221 4.99944 37.9518 5.92526C37.6432 6.85109 37.7049 8.0238 38.137 9.4434L54.6166 60.4562L48.6914 76.1952L68.4114 12.1283L70.263 12.8689L48.6914 82.7686C48.5679 83.1389 48.321 83.4475 47.9507 83.6944C47.6421 83.8796 47.2718 83.9722 46.8397 83.9722ZM100.908 83.9722H89.335C88.8412 83.9722 88.4092 83.8796 88.0388 83.6944C87.7302 83.4475 87.5142 83.0463 87.3907 82.4908L62.5787 7.314C62.2084 6.07957 61.8072 5.21547 61.3751 4.72169C60.9431 4.22792 60.4184 3.91931 59.8012 3.79587L57.3941 3.33296C56.962 3.20952 56.6534 3.08608 56.4683 2.96263C56.3448 2.83919 56.2831 2.68489 56.2831 2.49972C56.2831 2.06767 56.5917 1.85165 57.2089 1.85165H101.648C102.204 1.85165 102.482 2.09853 102.482 2.5923C102.482 2.71574 102.42 2.83919 102.297 2.96263C102.173 3.08608 101.895 3.20952 101.463 3.33296L96.2787 4.44396C94.2418 4.93773 93.0074 5.52408 92.5754 6.20302C92.1433 6.82023 92.1433 7.83863 92.5754 9.25823L108.87 60.734L102.667 76.5656L121.831 13.7948C122.634 11.1407 122.634 8.98048 121.831 7.314C121.091 5.5858 119.64 4.53653 117.48 4.1662L113.406 3.33296C113.036 3.20952 112.758 3.08608 112.573 2.96263C112.45 2.83919 112.388 2.68489 112.388 2.49972C112.388 2.25283 112.481 2.09853 112.666 2.03681C112.851 1.91337 113.036 1.85165 113.221 1.85165H133.867C134.176 1.85165 134.392 1.91337 134.515 2.03681C134.639 2.09853 134.7 2.28369 134.7 2.5923C134.7 2.71574 134.639 2.83919 134.515 2.96263C134.392 3.08608 134.114 3.20952 133.682 3.33296L131.553 4.1662C129.948 4.7217 128.436 5.8944 127.016 7.68433C125.658 9.41253 124.578 11.6036 123.776 14.2577L102.852 82.676C102.729 83.108 102.482 83.4475 102.111 83.6944C101.803 83.8796 101.402 83.9722 100.908 83.9722Z" fill="#0E1F24" fill-opacity="0.8"/>
<path d="M205.685 37.1255C205.685 37.681 205.5 38.1439 205.129 38.5142C204.759 38.8846 204.173 39.0697 203.37 39.0697H145.692V37.1255H176.521C177.571 37.1255 178.095 36.5083 178.095 35.2739C178.095 23.6085 176.799 15.1218 174.207 9.81372C171.615 4.44395 168.683 1.75906 165.412 1.75906C162.819 1.75906 160.536 2.80833 158.561 4.90686C156.585 6.94367 155.012 10.2766 153.839 14.9057C152.728 19.4731 152.172 25.5219 152.172 33.0519C152.172 45.8282 154.765 55.2716 159.949 61.3821C165.196 67.4308 172.108 70.4551 180.688 70.4551C187.292 70.4551 192.754 68.7269 197.075 65.2705C201.457 61.8141 203.772 57.1233 204.018 51.198C204.018 50.9511 204.08 50.7968 204.204 50.7351C204.389 50.6117 204.512 50.5499 204.574 50.5499C204.759 50.5499 204.913 50.6117 205.037 50.7351C205.16 50.7968 205.222 51.0129 205.222 51.3832C205.037 57.9257 203.247 63.8201 199.852 69.0664C196.519 74.251 192.014 78.3555 186.335 81.3799C180.719 84.3425 174.33 85.8238 167.171 85.8238C159.209 85.8238 152.141 84.0956 145.969 80.6392C139.859 77.1211 135.045 72.2451 131.526 66.0112C128.07 59.7773 126.342 52.525 126.342 44.2543C126.342 35.243 128.07 27.4352 131.526 20.831C135.045 14.1651 139.982 9.0422 146.34 5.46235C152.697 1.82078 160.165 0 168.745 0C176.275 0 182.786 1.60476 188.279 4.81428C193.834 8.0238 198.124 12.4369 201.148 18.0536C204.173 23.6702 205.685 30.0275 205.685 37.1255Z" fill="#0E1F24" fill-opacity="0.8"/>
<path d="M239.182 42.4649V119.864C239.182 120.604 239.398 121.283 239.83 121.901C240.262 122.518 240.848 122.919 241.589 123.104L245.848 123.845C246.465 123.968 246.773 124.215 246.773 124.585C246.773 125.017 246.434 125.234 245.755 125.234H204.741C204.432 125.234 204.185 125.172 204 125.048C203.877 124.863 203.815 124.709 203.815 124.585C203.815 124.4 203.908 124.246 204.093 124.123C204.34 123.937 204.618 123.814 204.926 123.752L209.185 122.919C210.049 122.734 210.635 122.425 210.944 121.993C211.253 121.499 211.407 120.913 211.407 120.234V53.2971C211.407 52.8033 211.314 52.4021 211.129 52.0935C210.944 51.7849 210.605 51.6306 210.111 51.6306H204.926C204.679 51.6306 204.463 51.5689 204.278 51.4454C204.155 51.322 204.093 51.1677 204.093 50.9825C204.093 50.7973 204.155 50.643 204.278 50.5196C204.463 50.3344 204.741 50.211 205.111 50.1493L235.941 41.5391C236.435 41.3539 236.836 41.2614 237.145 41.2614C237.453 41.1996 237.762 41.1688 238.071 41.1688C238.503 41.1688 238.78 41.3231 238.904 41.6317C239.089 41.8786 239.182 42.1563 239.182 42.4649ZM236.96 62.0924L235.849 61.1665L239.274 57.9262C245.755 51.8157 251.742 47.5261 257.235 45.0572C262.728 42.5266 267.666 41.2614 272.048 41.2614C277.912 41.2614 282.695 43.0821 286.399 46.7237C290.102 50.3036 291.953 56.0437 291.953 63.944V120.512C291.953 121.314 292.108 121.931 292.416 122.363C292.787 122.734 293.311 123.012 293.99 123.197L296.953 123.752C297.632 123.937 297.971 124.215 297.971 124.585C297.971 125.017 297.539 125.234 296.675 125.234H258.068C257.575 125.234 257.328 125.017 257.328 124.585C257.328 124.215 257.636 123.968 258.254 123.845L261.772 123.197C262.883 122.95 263.623 122.456 263.994 121.715C264.364 120.913 264.549 119.956 264.549 118.845V66.9066C264.549 62.7096 263.5 59.4384 261.401 57.0929C259.303 54.6858 256.618 53.4822 253.347 53.4822C250.816 53.4822 248.502 53.9451 246.403 54.871C244.304 55.7351 242.237 57.1238 240.2 59.0372L236.96 62.0924ZM289.546 62.0924L288.435 61.1665L291.398 57.4633C295.842 52.0318 300.379 47.989 305.008 45.335C309.637 42.6192 314.42 41.2614 319.358 41.2614C324.975 41.2614 329.696 43.0821 333.523 46.7237C337.411 50.3036 339.788 56.0745 340.652 64.0366L347.318 120.234C347.441 121.16 347.688 121.87 348.058 122.363C348.429 122.796 348.953 123.104 349.632 123.289L352.502 123.937C352.749 123.937 352.934 123.999 353.058 124.123C353.243 124.246 353.336 124.4 353.336 124.585C353.336 124.771 353.243 124.925 353.058 125.048C352.934 125.172 352.749 125.234 352.502 125.234H312.136C311.643 125.234 311.396 125.017 311.396 124.585C311.396 124.215 311.704 123.968 312.322 123.845L315.747 123.197C316.92 122.95 317.722 122.425 318.154 121.623C318.586 120.759 318.741 119.74 318.617 118.568L313.34 66.9066C312.846 62.7096 311.674 59.4384 309.822 57.0929C308.032 54.6858 305.501 53.4822 302.23 53.4822C300.379 53.4822 298.65 53.9451 297.046 54.871C295.441 55.7351 293.867 56.9695 292.324 58.5742L289.546 62.0924Z" fill="#0E1F24" fill-opacity="0.8"/>
<path d="M398.75 116.623V115.605L397.454 116.809V53.2045C397.454 49.8715 396.713 47.3101 395.232 45.5201C393.751 43.6685 391.714 42.7427 389.122 42.7427C386.159 42.7427 383.875 43.5451 382.27 45.1498C380.727 46.7546 379.956 48.7297 379.956 51.0751V59.6852C379.956 63.3268 378.629 66.4746 375.975 69.1286C373.321 71.7209 369.864 73.0171 365.606 73.0171C362.705 73.0171 360.298 72.1838 358.384 70.5174C356.533 68.7892 355.607 66.1969 355.607 62.7405C355.607 59.4075 356.995 56.1054 359.773 52.8341C362.55 49.5012 366.686 46.7546 372.179 44.5943C377.672 42.3723 384.462 41.2614 392.547 41.2614C403.533 41.2614 411.742 43.4833 417.174 47.9273C422.667 52.3095 425.414 58.5742 425.414 66.7215V113.661C425.414 115.451 425.753 116.778 426.432 117.642C427.173 118.506 428.037 118.938 429.024 118.938C430.012 118.938 430.938 118.598 431.802 117.92C432.728 117.179 433.314 115.944 433.561 114.216C433.623 113.969 433.684 113.815 433.746 113.753C433.87 113.63 433.962 113.568 434.024 113.568C434.209 113.568 434.333 113.63 434.394 113.753C434.518 113.815 434.579 113.969 434.579 114.216C434.579 115.512 433.931 117.179 432.635 119.216C431.401 121.191 429.333 122.981 426.432 124.585C423.593 126.19 419.705 126.993 414.767 126.993C409.088 126.993 404.984 126.005 402.453 124.03C399.985 121.993 398.75 119.524 398.75 116.623ZM350.7 106.995C350.7 99.8968 353.632 94.2802 359.495 90.1448C365.42 85.9478 375.049 83.8492 388.381 83.8492C391.652 83.8492 394.275 84.1887 396.25 84.8676C398.287 85.5466 400.17 86.4107 401.898 87.4599L401.065 88.2006C399.275 87.2748 397.516 86.5958 395.787 86.1638C394.059 85.7317 392.084 85.5157 389.862 85.5157C386.159 85.5157 383.289 86.997 381.252 89.9596C379.215 92.9223 378.197 97.2737 378.197 103.014C378.197 108.507 379.215 112.581 381.252 115.235C383.289 117.889 385.912 119.216 389.122 119.216C391.097 119.216 393.072 118.66 395.047 117.549C397.084 116.438 398.719 114.926 399.954 113.013L401.157 113.661C398.565 117.981 394.892 121.283 390.14 123.567C385.387 125.851 380.264 126.993 374.771 126.993C367.735 126.993 361.964 125.141 357.458 121.438C352.953 117.673 350.7 112.858 350.7 106.995Z" fill="#0E1F24" fill-opacity="0.8"/>
</g>
</svg>
