<svg width="77" height="77" viewBox="0 0 77 77" fill="none" xmlns="http://www.w3.org/2000/svg">
<g filter="url(#filter0_d_113_123)">
<circle cx="38.5" cy="34.5" r="24.5" fill="white"/>
</g>
<path d="M28 27V33H34" stroke="black" stroke-width="2" stroke-linecap="round" stroke-linejoin="round"/>
<path d="M50 43V37H44" stroke="black" stroke-width="2" stroke-linecap="round" stroke-linejoin="round"/>
<path d="M47.49 32C46.9828 30.5668 46.1209 29.2854 44.9845 28.2754C43.8482 27.2654 42.4745 26.5598 40.9917 26.2243C39.5089 25.8888 37.9652 25.9344 36.5048 26.3568C35.0444 26.7792 33.7147 27.5647 32.64 28.64L28 33M50 37L45.36 41.36C44.2853 42.4353 42.9556 43.2208 41.4952 43.6432C40.0348 44.0657 38.4911 44.1113 37.0083 43.7758C35.5255 43.4402 34.1518 42.7346 33.0155 41.7246C31.8791 40.7146 31.0172 39.4332 30.51 38" stroke="black" stroke-width="2" stroke-linecap="round" stroke-linejoin="round"/>
<defs>
<filter id="filter0_d_113_123" x="0" y="0" width="77" height="77" filterUnits="userSpaceOnUse" color-interpolation-filters="sRGB">
<feFlood flood-opacity="0" result="BackgroundImageFix"/>
<feColorMatrix in="SourceAlpha" type="matrix" values="0 0 0 0 0 0 0 0 0 0 0 0 0 0 0 0 0 0 127 0" result="hardAlpha"/>
<feOffset dy="4"/>
<feGaussianBlur stdDeviation="7"/>
<feComposite in2="hardAlpha" operator="out"/>
<feColorMatrix type="matrix" values="0 0 0 0 0 0 0 0 0 0 0 0 0 0 0 0 0 0 0.05 0"/>
<feBlend mode="normal" in2="BackgroundImageFix" result="effect1_dropShadow_113_123"/>
<feBlend mode="normal" in="SourceGraphic" in2="effect1_dropShadow_113_123" result="shape"/>
</filter>
</defs>
</svg>
