<svg width="1133" height="693" viewBox="0 0 1133 693" fill="none" xmlns="http://www.w3.org/2000/svg">
<g opacity="0.05">
<path d="M31.0107 363.68H-19.0912C-21.2289 363.68 -23.0993 363.279 -24.7026 362.477C-26.0386 361.408 -27.1075 359.804 -27.9091 357.666L-137.332 30.4737C-138.668 26.464 -140.404 23.5236 -142.542 21.6524C-144.68 19.5139 -147.486 18.1773 -150.959 17.6427L-166.992 14.034C-168.595 13.7666 -169.664 13.3657 -170.198 12.831C-170.733 12.2964 -171 11.6281 -171 10.8262C-171 9.75693 -170.599 9.08865 -169.798 8.82134C-169.263 8.28672 -168.462 8.01942 -167.393 8.01942H26.2009C27.2697 8.01942 28.0714 8.28672 28.6058 8.82134C29.4074 9.08865 29.8082 9.89058 29.8082 11.2271C29.8082 11.7618 29.4074 12.2964 28.6058 12.831C28.0714 13.3657 27.0025 13.9003 25.3993 14.4349L5.35855 17.6427C-1.5889 18.9793 -5.86429 21.6524 -7.46754 25.6621C-8.80359 29.6718 -8.53636 34.7508 -6.66589 40.899L64.6792 261.834L39.027 329.999L124.401 52.5271L132.417 55.7349L39.027 358.468C38.4926 360.071 37.4237 361.408 35.8205 362.477C34.4844 363.279 32.8812 363.68 31.0107 363.68ZM265.087 363.68H214.985C212.847 363.68 210.977 363.279 209.373 362.477C208.037 361.408 207.102 359.67 206.568 357.265L99.1492 31.6767C97.546 26.3304 95.8091 22.588 93.9386 20.4495C92.0681 18.311 89.7969 16.9744 87.1248 16.4398L76.7036 14.4349C74.8331 13.9003 73.4971 13.3657 72.6954 12.831C72.161 12.2964 71.8938 11.6281 71.8938 10.8262C71.8938 8.955 73.2298 8.01942 75.902 8.01942H268.293C270.698 8.01942 271.9 9.08865 271.9 11.2271C271.9 11.7618 271.633 12.2964 271.099 12.831C270.564 13.3657 269.362 13.9003 267.491 14.4349L245.046 19.2466C236.228 21.3851 230.884 23.9246 229.013 26.865C227.143 29.5382 227.143 33.9488 229.013 40.097L299.557 263.037L272.702 331.603L355.671 59.7446C359.145 48.2501 359.145 38.8941 355.671 31.6767C352.464 24.1919 346.185 19.6475 336.832 18.0437L319.197 14.4349C317.593 13.9003 316.391 13.3657 315.589 12.831C315.055 12.2964 314.788 11.6281 314.788 10.8262C314.788 9.75693 315.188 9.08865 315.99 8.82134C316.792 8.28672 317.593 8.01942 318.395 8.01942H407.777C409.113 8.01942 410.048 8.28672 410.582 8.82134C411.117 9.08865 411.384 9.89058 411.384 11.2271C411.384 11.7618 411.117 12.2964 410.582 12.831C410.048 13.3657 408.846 13.9003 406.975 14.4349L397.756 18.0437C390.809 20.4495 384.262 25.5284 378.116 33.2805C372.238 40.7653 367.562 50.2549 364.088 61.7494L273.504 358.067C272.969 359.938 271.9 361.408 270.297 362.477C268.961 363.279 267.224 363.68 265.087 363.68Z" fill="#0E1F24" fill-opacity="0.8"/>
<path d="M718.696 160.789C718.696 163.195 717.895 165.2 716.291 166.804C714.688 168.408 712.15 169.209 708.676 169.209H458.968V160.789H592.44C596.982 160.789 599.253 158.116 599.253 152.77C599.253 102.247 593.642 65.4918 582.419 42.5028C571.196 19.2466 558.504 7.61843 544.342 7.61843C533.119 7.61843 523.232 12.1628 514.682 21.2514C506.131 30.0728 499.317 44.5077 494.24 64.5562C489.43 84.3374 487.025 110.534 487.025 143.146C487.025 198.48 498.248 239.379 520.694 265.843C543.407 292.04 573.334 305.138 610.476 305.138C639.068 305.138 662.716 297.654 681.42 282.684C700.392 267.715 710.413 247.399 711.482 221.737C711.482 220.667 711.749 219.999 712.283 219.732C713.085 219.197 713.619 218.93 713.887 218.93C714.688 218.93 715.356 219.197 715.891 219.732C716.425 219.999 716.692 220.935 716.692 222.539C715.891 250.874 708.141 276.402 693.445 299.124C679.016 321.578 659.509 339.355 634.926 352.453C610.61 365.284 582.954 371.7 551.957 371.7C517.487 371.7 486.892 364.215 460.171 349.245C433.717 334.008 412.875 312.891 397.644 285.892C382.68 258.893 375.198 227.484 375.198 191.664C375.198 152.636 382.68 118.821 397.644 90.2183C412.875 61.3485 434.251 39.1614 461.774 23.6572C489.297 7.88573 521.629 0 558.771 0C591.371 0 619.561 6.95015 643.343 20.8505C667.392 34.7508 685.963 53.8637 699.056 78.1892C712.15 102.515 718.696 130.048 718.696 160.789Z" fill="#0E1F24" fill-opacity="0.8"/>
<path d="M863.713 346.914V682.125C863.713 685.333 864.648 688.273 866.519 690.947C868.389 693.62 870.927 695.357 874.134 696.159L892.572 699.367C895.244 699.901 896.58 700.971 896.58 702.575C896.58 704.446 895.11 705.382 892.171 705.382H714.61C713.274 705.382 712.205 705.114 711.403 704.58C710.869 703.778 710.602 703.109 710.602 702.575C710.602 701.773 711.002 701.104 711.804 700.57C712.873 699.768 714.075 699.233 715.411 698.966L733.849 695.357C737.59 694.555 740.128 693.219 741.464 691.347C742.8 689.209 743.468 686.67 743.468 683.729V393.828C743.468 391.689 743.068 389.951 742.266 388.615C741.464 387.278 739.995 386.61 737.857 386.61H715.411C714.343 386.61 713.407 386.343 712.606 385.808C712.071 385.273 711.804 384.605 711.804 383.803C711.804 383.001 712.071 382.333 712.606 381.798C713.407 380.996 714.61 380.462 716.213 380.195L849.684 342.904C851.822 342.102 853.559 341.701 854.895 341.701C856.231 341.434 857.567 341.3 858.903 341.3C860.774 341.3 861.976 341.969 862.51 343.305C863.312 344.374 863.713 345.577 863.713 346.914ZM854.093 431.92L849.284 427.91L864.114 413.876C892.171 387.412 918.09 368.834 941.872 358.141C965.654 347.181 987.03 341.701 1006 341.701C1031.39 341.701 1052.1 349.587 1068.13 365.359C1084.16 380.863 1092.18 405.723 1092.18 439.939V684.932C1092.18 688.407 1092.85 691.08 1094.18 692.951C1095.78 694.555 1098.06 695.758 1101 696.56L1113.82 698.966C1116.76 699.768 1118.23 700.971 1118.23 702.575C1118.23 704.446 1116.36 705.382 1112.62 705.382H945.479C943.341 705.382 942.273 704.446 942.273 702.575C942.273 700.971 943.609 699.901 946.281 699.367L961.512 696.56C966.322 695.491 969.528 693.352 971.131 690.145C972.734 686.669 973.536 682.526 973.536 677.714V452.77C973.536 434.593 968.994 420.425 959.908 410.267C950.823 399.842 939.2 394.629 925.038 394.629C914.082 394.629 904.062 396.634 894.976 400.644C885.891 404.386 876.94 410.401 868.122 418.688L854.093 431.92ZM1081.76 431.92L1076.95 427.91L1089.77 411.871C1109.01 388.348 1128.65 370.839 1148.69 359.344C1168.73 347.582 1189.44 341.701 1210.82 341.701C1235.13 341.701 1255.58 349.587 1272.14 365.359C1288.98 380.863 1299.27 405.857 1303.01 440.34L1331.86 683.729C1332.4 687.739 1333.47 690.813 1335.07 692.951C1336.67 694.823 1338.95 696.159 1341.89 696.961L1354.31 699.768C1355.38 699.768 1356.18 700.035 1356.72 700.57C1357.52 701.104 1357.92 701.773 1357.92 702.575C1357.92 703.377 1357.52 704.045 1356.72 704.58C1356.18 705.114 1355.38 705.382 1354.31 705.382H1179.56C1177.42 705.382 1176.35 704.446 1176.35 702.575C1176.35 700.971 1177.68 699.901 1180.36 699.367L1195.19 696.56C1200.26 695.491 1203.74 693.219 1205.61 689.744C1207.48 686.001 1208.15 681.591 1207.61 676.512L1184.77 452.77C1182.63 434.593 1177.55 420.425 1169.53 410.267C1161.79 399.842 1150.83 394.629 1136.67 394.629C1128.65 394.629 1121.17 396.634 1114.22 400.644C1107.27 404.386 1100.46 409.733 1093.78 416.683L1081.76 431.92Z" fill="#0E1F24" fill-opacity="0.8"/>
<path d="M1554.53 668.091V663.681L1548.92 668.893V393.427C1548.92 378.992 1545.71 367.898 1539.3 360.146C1532.89 352.127 1524.07 348.117 1512.85 348.117C1500.02 348.117 1490.13 351.592 1483.18 358.542C1476.5 365.492 1473.16 374.046 1473.16 384.204V421.494C1473.16 437.266 1467.42 450.899 1455.93 462.393C1444.44 473.621 1429.48 479.234 1411.04 479.234C1398.48 479.234 1388.06 475.625 1379.77 468.408C1371.76 460.923 1367.75 449.696 1367.75 434.726C1367.75 420.292 1373.76 405.99 1385.79 391.823C1397.81 377.388 1415.71 365.492 1439.5 356.136C1463.28 346.513 1492.67 341.701 1527.68 341.701C1575.24 341.701 1610.78 351.325 1634.29 370.571C1658.07 389.55 1669.96 416.683 1669.96 451.968V655.26C1669.96 663.012 1671.43 668.76 1674.37 672.502C1677.58 676.244 1681.32 678.115 1685.6 678.115C1689.87 678.115 1693.88 676.645 1697.62 673.705C1701.63 670.497 1704.17 665.151 1705.24 657.666C1705.5 656.597 1705.77 655.928 1706.04 655.661C1706.57 655.127 1706.97 654.859 1707.24 654.859C1708.04 654.859 1708.58 655.127 1708.84 655.661C1709.38 655.928 1709.65 656.597 1709.65 657.666C1709.65 663.28 1706.84 670.497 1701.23 679.318C1695.88 687.872 1686.93 695.625 1674.37 702.575C1662.08 709.525 1645.25 713 1623.87 713C1599.29 713 1581.52 708.723 1570.56 700.169C1559.87 691.348 1554.53 680.655 1554.53 668.091ZM1346.51 626.39C1346.51 595.649 1359.2 571.324 1384.58 553.414C1410.24 535.236 1451.92 526.148 1509.64 526.148C1523.8 526.148 1535.16 527.618 1543.71 530.558C1552.53 533.499 1560.68 537.241 1568.16 541.786L1564.55 544.993C1556.8 540.984 1549.19 538.043 1541.7 536.172C1534.22 534.301 1525.67 533.365 1516.05 533.365C1500.02 533.365 1487.59 539.781 1478.78 552.612C1469.96 565.443 1465.55 584.288 1465.55 609.149C1465.55 632.939 1469.96 650.582 1478.78 662.077C1487.59 673.571 1498.95 679.318 1512.85 679.318C1521.4 679.318 1529.95 676.913 1538.5 672.101C1547.32 667.289 1554.4 660.74 1559.74 652.453L1564.95 655.26C1553.73 673.972 1537.83 688.273 1517.25 698.164C1496.68 708.055 1474.5 713 1450.72 713C1420.26 713 1395.27 704.981 1375.77 688.942C1356.26 672.636 1346.51 651.785 1346.51 626.39Z" fill="#0E1F24" fill-opacity="0.8"/>
</g>
</svg>
