<svg width="122" height="36" viewBox="0 0 122 36" fill="none" xmlns="http://www.w3.org/2000/svg">
<path d="M13.1047 23.3265H9.85453C9.71586 23.3265 9.59452 23.3008 9.49051 23.2494C9.40384 23.1808 9.3345 23.0779 9.2825 22.9407L2.18412 1.95459C2.09745 1.69741 1.98477 1.50881 1.8461 1.38879C1.70743 1.25163 1.52542 1.1659 1.30007 1.13161L0.260014 0.90014C0.156008 0.882995 0.0866713 0.857277 0.0520028 0.822986C0.0173343 0.788695 0 0.745831 0 0.694394C0 0.625812 0.0260014 0.582947 0.0780042 0.565802C0.112673 0.531511 0.164676 0.514367 0.234013 0.514367H12.7927C12.862 0.514367 12.914 0.531511 12.9487 0.565802C13.0007 0.582947 13.0267 0.634384 13.0267 0.720111C13.0267 0.754403 13.0007 0.788695 12.9487 0.822986C12.914 0.857277 12.8447 0.891569 12.7407 0.92586L11.4406 1.13161C10.9899 1.21733 10.7126 1.38879 10.6086 1.64597C10.5219 1.90315 10.5392 2.22892 10.6606 2.62327L15.2888 16.7941L13.6247 21.1662L19.163 3.3691L19.6831 3.57485L13.6247 22.9922C13.5901 23.0951 13.5207 23.1808 13.4167 23.2494C13.3301 23.3008 13.226 23.3265 13.1047 23.3265ZM28.2895 23.3265H25.0393C24.9007 23.3265 24.7793 23.3008 24.6753 23.2494C24.5887 23.1808 24.528 23.0693 24.4933 22.915L17.5249 2.03175C17.4209 1.68884 17.3083 1.4488 17.1869 1.31163C17.0656 1.17447 16.9182 1.08874 16.7449 1.05445L16.0689 0.92586C15.9475 0.891569 15.8609 0.857277 15.8089 0.822986C15.7742 0.788695 15.7569 0.745831 15.7569 0.694394C15.7569 0.574376 15.8435 0.514367 16.0169 0.514367H28.4975C28.6535 0.514367 28.7316 0.582948 28.7316 0.720111C28.7316 0.754403 28.7142 0.788695 28.6795 0.822986C28.6449 0.857277 28.5669 0.891569 28.4455 0.92586L26.9895 1.23448C26.4174 1.37165 26.0707 1.53453 25.9494 1.72313C25.8281 1.89458 25.8281 2.17748 25.9494 2.57183L30.5256 16.8712L28.7836 21.2691L34.1658 3.83203C34.3912 3.09477 34.3912 2.49468 34.1658 2.03175C33.9578 1.55167 33.5505 1.2602 32.9438 1.15732L31.7997 0.92586C31.6957 0.891569 31.6177 0.857277 31.5657 0.822986C31.531 0.788695 31.5137 0.745831 31.5137 0.694394C31.5137 0.625812 31.5397 0.582947 31.5917 0.565802C31.6437 0.531511 31.6957 0.514367 31.7477 0.514367H37.546C37.6327 0.514367 37.6934 0.531511 37.728 0.565802C37.7627 0.582947 37.78 0.634384 37.78 0.720111C37.78 0.754403 37.7627 0.788695 37.728 0.822986C37.6934 0.857277 37.6154 0.891569 37.494 0.92586L36.896 1.15732C36.4453 1.31163 36.0206 1.6374 35.6219 2.13462C35.2406 2.61469 34.9372 3.22336 34.7119 3.96062L28.8356 22.9665C28.8009 23.0865 28.7316 23.1808 28.6275 23.2494C28.5409 23.3008 28.4282 23.3265 28.2895 23.3265Z" fill="#E36B53"/>
<path d="M57.7158 10.313C57.7158 10.4674 57.6638 10.5959 57.5598 10.6988C57.4558 10.8017 57.2911 10.8531 57.0658 10.8531H40.8669V10.313H49.5254C49.82 10.313 49.9674 10.1416 49.9674 9.79868C49.9674 6.55817 49.6034 4.20066 48.8753 2.72614C48.1473 1.23448 47.3239 0.488648 46.4052 0.488648C45.6772 0.488648 45.0358 0.780121 44.4811 1.36307C43.9264 1.92887 43.4844 2.85473 43.155 4.14065C42.843 5.40942 42.687 7.08968 42.687 9.18144C42.687 12.7306 43.415 15.3538 44.8711 17.0512C46.3445 18.7315 48.286 19.5716 50.6954 19.5716C52.5502 19.5716 54.0843 19.0916 55.2977 18.1314C56.5284 17.1713 57.1784 15.8682 57.2478 14.2222C57.2478 14.1536 57.2651 14.1108 57.2998 14.0936C57.3518 14.0593 57.3865 14.0422 57.4038 14.0422C57.4558 14.0422 57.4991 14.0593 57.5338 14.0936C57.5685 14.1108 57.5858 14.1708 57.5858 14.2737C57.5338 16.0911 57.0311 17.7285 56.0777 19.1859C55.1417 20.6261 53.8763 21.7663 52.2815 22.6064C50.7041 23.4294 48.91 23.8409 46.8992 23.8409C44.6631 23.8409 42.6783 23.3608 40.9449 22.4007C39.2288 21.4234 37.8767 20.0689 36.8887 18.3372C35.918 16.6055 35.4326 14.5909 35.4326 12.2934C35.4326 9.79011 35.918 7.62119 36.8887 5.78662C37.8767 3.9349 39.2635 2.51182 41.0489 1.51738C42.8343 0.505792 44.9318 0 47.3412 0C49.456 0 51.2848 0.445784 52.8275 1.33735C54.3876 2.22892 55.5924 3.45483 56.4417 5.01507C57.2911 6.57532 57.7158 8.34131 57.7158 10.313Z" fill="#E36B53"/>
<path d="M67.1232 11.7963V33.2968C67.1232 33.5025 67.1839 33.6911 67.3052 33.8626C67.4266 34.034 67.5912 34.1455 67.7993 34.1969L68.9953 34.4027C69.1687 34.437 69.2553 34.5056 69.2553 34.6084C69.2553 34.7284 69.16 34.7885 68.9693 34.7885H57.4507C57.364 34.7885 57.2947 34.7713 57.2427 34.737C57.208 34.6856 57.1907 34.6427 57.1907 34.6084C57.1907 34.557 57.2167 34.5141 57.2687 34.4798C57.338 34.4284 57.416 34.3941 57.5027 34.377L58.6988 34.1455C58.9415 34.0941 59.1061 34.0083 59.1928 33.8883C59.2795 33.7511 59.3228 33.5883 59.3228 33.3997V14.8053C59.3228 14.6682 59.2968 14.5567 59.2448 14.471C59.1928 14.3853 59.0975 14.3424 58.9588 14.3424H57.5027C57.4334 14.3424 57.3727 14.3252 57.3207 14.291C57.286 14.2567 57.2687 14.2138 57.2687 14.1624C57.2687 14.1109 57.286 14.0681 57.3207 14.0338C57.3727 13.9823 57.4507 13.948 57.5547 13.9309L66.2132 11.5391C66.3519 11.4877 66.4645 11.4619 66.5512 11.4619C66.6379 11.4448 66.7245 11.4362 66.8112 11.4362C66.9325 11.4362 67.0106 11.4791 67.0452 11.5648C67.0972 11.6334 67.1232 11.7105 67.1232 11.7963ZM66.4992 17.2486L66.1872 16.9914L67.1492 16.0912C68.9693 14.3938 70.6508 13.2022 72.1935 12.5164C73.7363 11.8134 75.123 11.4619 76.3537 11.4619C78.0005 11.4619 79.3439 11.9677 80.3839 12.9793C81.424 13.9738 81.944 15.5683 81.944 17.7629V33.4768C81.944 33.6997 81.9874 33.8712 82.074 33.9912C82.178 34.0941 82.3254 34.1712 82.5161 34.2226L83.3481 34.377C83.5388 34.4284 83.6341 34.5056 83.6341 34.6084C83.6341 34.7284 83.5128 34.7885 83.2701 34.7885H72.4275C72.2888 34.7885 72.2195 34.7284 72.2195 34.6084C72.2195 34.5056 72.3062 34.437 72.4795 34.4027L73.4676 34.2226C73.7796 34.1541 73.9876 34.0169 74.0916 33.8112C74.1956 33.5883 74.2476 33.3225 74.2476 33.0139V18.5859C74.2476 17.42 73.9529 16.5113 73.3636 15.8598C72.7742 15.1911 72.0202 14.8568 71.1014 14.8568C70.3907 14.8568 69.7407 14.9853 69.1513 15.2425C68.562 15.4826 67.9813 15.8683 67.4092 16.3999L66.4992 17.2486ZM81.268 17.2486L80.956 16.9914L81.788 15.9626C83.0361 14.4538 84.3102 13.3308 85.6102 12.5935C86.9103 11.8391 88.2537 11.4619 89.6404 11.4619C91.2179 11.4619 92.5439 11.9677 93.6187 12.9793C94.7107 13.9738 95.3781 15.5769 95.6208 17.7886L97.4929 33.3997C97.5275 33.6569 97.5969 33.854 97.7009 33.9912C97.8049 34.1112 97.9522 34.1969 98.1429 34.2484L98.949 34.4284C99.0183 34.4284 99.0703 34.4455 99.105 34.4798C99.157 34.5141 99.183 34.557 99.183 34.6084C99.183 34.6599 99.157 34.7027 99.105 34.737C99.0703 34.7713 99.0183 34.7885 98.949 34.7885H87.6123C87.4737 34.7885 87.4043 34.7284 87.4043 34.6084C87.4043 34.5056 87.491 34.437 87.6643 34.4027L88.6264 34.2226C88.9557 34.1541 89.1811 34.0083 89.3024 33.7854C89.4238 33.5454 89.4671 33.2625 89.4324 32.9367L87.9504 18.5859C87.8117 17.42 87.4823 16.5113 86.9623 15.8598C86.4596 15.1911 85.7489 14.8568 84.8302 14.8568C84.3102 14.8568 83.8248 14.9853 83.3741 15.2425C82.9234 15.4826 82.4814 15.8255 82.048 16.2713L81.268 17.2486Z" fill="#E36B53"/>
<path d="M111.937 32.3966V32.1138L111.573 32.4481V14.7796C111.573 13.8537 111.365 13.1422 110.949 12.645C110.533 12.1306 109.961 11.8734 109.233 11.8734C108.401 11.8734 107.76 12.0963 107.309 12.5421C106.876 12.9879 106.659 13.5365 106.659 14.1881V16.5799C106.659 17.5915 106.286 18.4659 105.541 19.2031C104.796 19.9233 103.825 20.2833 102.629 20.2833C101.814 20.2833 101.138 20.0519 100.601 19.5889C100.081 19.1089 99.8208 18.3887 99.8208 17.4286C99.8208 16.5027 100.211 15.5854 100.991 14.6767C101.771 13.7509 102.932 12.9879 104.475 12.3878C106.018 11.7706 107.925 11.4619 110.195 11.4619C113.281 11.4619 115.586 12.0792 117.112 13.3137C118.654 14.531 119.426 16.2713 119.426 18.5345V31.5737C119.426 32.0709 119.521 32.4395 119.712 32.6796C119.92 32.9196 120.163 33.0396 120.44 33.0396C120.717 33.0396 120.977 32.9453 121.22 32.7567C121.48 32.551 121.645 32.208 121.714 31.728C121.731 31.6594 121.749 31.6165 121.766 31.5994C121.801 31.5651 121.827 31.5479 121.844 31.5479C121.896 31.5479 121.931 31.5651 121.948 31.5994C121.983 31.6165 122 31.6594 122 31.728C122 32.088 121.818 32.551 121.454 33.1168C121.107 33.6654 120.527 34.1626 119.712 34.6084C118.914 35.0542 117.822 35.2771 116.436 35.2771C114.841 35.2771 113.688 35.0028 112.978 34.4541C112.284 33.8883 111.937 33.2025 111.937 32.3966ZM98.4427 29.7219C98.4427 27.7502 99.2661 26.19 100.913 25.0412C102.577 23.8753 105.281 23.2924 109.025 23.2924C109.944 23.2924 110.681 23.3867 111.235 23.5753C111.807 23.7639 112.336 24.0039 112.822 24.2954L112.587 24.5011C112.085 24.2439 111.591 24.0553 111.105 23.9353C110.62 23.8153 110.065 23.7553 109.441 23.7553C108.401 23.7553 107.595 24.1668 107.023 24.9898C106.451 25.8128 106.165 27.0215 106.165 28.6161C106.165 30.142 106.451 31.2736 107.023 32.0109C107.595 32.7481 108.332 33.1168 109.233 33.1168C109.788 33.1168 110.343 32.9625 110.897 32.6538C111.469 32.3452 111.929 31.9251 112.275 31.3936L112.613 31.5737C111.885 32.7738 110.854 33.6911 109.519 34.3255C108.185 34.9599 106.746 35.2771 105.203 35.2771C103.227 35.2771 101.606 34.7627 100.341 33.734C99.0754 32.6881 98.4427 31.3508 98.4427 29.7219Z" fill="#E36B53"/>
</svg>
